<?xml version="1.0" standalone="no"?>
<!DOCTYPE svg PUBLIC "-//W3C//DTD SVG 20010904//EN"
 "http://www.w3.org/TR/2001/REC-SVG-20010904/DTD/svg10.dtd">
<svg version="1.0" xmlns="http://www.w3.org/2000/svg"
 width="327.000000pt" height="327.000000pt" viewBox="0 0 327.000000 327.000000"
 preserveAspectRatio="xMidYMid meet">
<metadata>
Created by potrace 1.11, written by Peter Selinger 2001-2013
</metadata>
<g transform="translate(0.000000,327.000000) scale(0.100000,-0.100000)"
fill="#000000" stroke="none">
<path d="M1420 3175 c-582 -80 -1088 -486 -1280 -1028 -73 -206 -95 -333 -95
-552 0 -219 22 -346 95 -552 243 -684 966 -1125 1690 -1029 590 79 1096 483
1290 1029 73 206 95 333 95 552 0 219 -22 346 -95 552 -85 240 -245 471 -449
650 -342 299 -805 439 -1251 378z m194 -662 c86 -28 156 -116 156 -198 -1 -48
-38 -103 -90 -133 -38 -22 -47 -31 -35 -36 20 -7 82 24 112 56 61 65 56 182
-10 258 l-22 25 29 -25 c93 -81 84 -234 -18 -298 l-45 -29 39 -32 c48 -38 68
-75 77 -136 12 -93 -57 -190 -152 -214 -26 -7 -143 -11 -286 -11 l-243 0 42
36 42 36 0 129 0 129 -39 0 c-22 0 -43 5 -46 10 -4 6 12 10 39 10 34 0 46 4
46 15 0 11 -12 15 -50 15 l-51 0 16 30 c13 25 22 30 50 30 l35 0 0 114 0 114
-30 12 c-16 7 -30 16 -30 20 0 9 93 55 145 71 98 30 227 31 319 2z m200 -452
c64 -71 57 -212 -16 -290 -65 -70 -93 -76 -372 -79 -136 -2 -256 0 -265 5 -9
4 103 10 249 13 258 5 266 6 315 30 112 56 150 201 80 304 -26 38 -20 49 9 17z
m215 -107 c-7 -9 -4 -24 11 -54 11 -22 18 -46 14 -52 -5 -7 -3 -8 6 -3 10 6
12 4 7 -9 -5 -11 -3 -15 5 -10 8 5 9 2 5 -10 -4 -10 -3 -15 3 -11 17 10 12
131 -6 149 -14 15 -11 16 30 16 46 0 69 -16 45 -31 -19 -11 -27 0 -9 12 12 9
12 10 1 7 -12 -3 -14 -29 -12 -136 l2 -132 -28 1 -28 1 25 8 25 8 -26 1 c-21
1 -32 14 -71 88 l-46 87 -4 -71 c-1 -39 0 -69 5 -66 4 2 7 -1 7 -8 0 -7 7 -21
17 -31 15 -17 14 -18 -43 -16 l-59 1 50 7 50 7 -50 2 c-39 1 -46 4 -32 12 14
9 17 26 17 117 0 73 -4 112 -12 121 -11 10 -1 12 49 10 49 -2 60 -5 52 -15z
m-985 -650 c19 -19 20 -26 4 -43 -10 -11 -10 -14 0 -18 15 -6 16 -45 0 -61 -7
-7 -36 -12 -65 -12 l-52 0 6 31 c4 21 1 34 -8 40 -12 7 -12 10 -1 18 8 4 13
17 12 27 -4 32 -1 34 44 34 27 0 51 -6 60 -16z m137 6 c23 -13 25 -46 3 -58
-18 -10 -9 -37 20 -61 13 -11 18 -8 35 20 12 19 16 36 11 39 -5 3 0 14 11 24
11 9 18 24 15 32 -4 10 3 14 24 14 22 0 30 -5 30 -18 0 -10 10 -26 21 -36 14
-12 18 -21 11 -25 -8 -5 -8 -13 1 -30 20 -40 32 -24 32 44 l0 65 33 0 c18 0
31 -3 29 -8 -3 -4 4 -23 14 -42 l20 -35 -3 43 c-3 36 -1 42 15 42 13 0 17 -5
13 -16 -3 -9 -6 -42 -6 -75 0 -73 -15 -77 -50 -12 l-25 48 -3 -33 c-2 -18 2
-40 9 -48 10 -12 2 -14 -55 -14 -48 0 -66 4 -65 13 3 26 -2 32 -27 33 -22 2
-25 -1 -20 -21 5 -21 2 -23 -37 -27 -23 -3 -48 -6 -56 -9 -10 -3 -17 8 -24 34
-11 44 -31 50 -25 7 4 -27 2 -30 -23 -30 -26 0 -28 2 -22 30 3 19 1 30 -5 30
-10 0 -8 38 4 78 4 15 68 16 95 2z m457 -6 c33 -23 32 -97 -2 -119 -24 -16
-97 -18 -96 -2 0 4 0 36 0 72 l0 65 38 0 c21 0 48 -7 60 -16z m156 3 c-2 -7 3
-21 11 -32 15 -19 16 -19 12 13 -3 27 0 32 17 32 20 0 21 -5 18 -75 -3 -62 -6
-75 -20 -75 -10 0 -25 17 -36 43 -19 41 -20 41 -23 14 -3 -16 1 -35 8 -43 10
-12 5 -14 -26 -14 -32 0 -36 2 -25 15 7 9 11 37 8 75 l-3 60 32 0 c22 0 31 -4
27 -13z m182 4 c-9 -14 4 -41 19 -41 8 0 13 -13 12 -35 -1 -40 17 -65 34 -48
6 6 9 36 7 72 -3 60 -3 61 23 61 23 0 28 -6 33 -35 4 -19 11 -35 16 -35 5 0
12 16 16 35 5 28 11 35 29 35 22 0 24 -4 27 -75 l3 -75 -27 0 c-25 0 -26 2
-22 38 l4 37 -13 -34 c-18 -46 -32 -49 -45 -9 l-11 33 3 -33 3 -33 -61 3 c-59
3 -61 4 -58 28 3 20 1 23 -9 13 -10 -10 -16 -10 -27 0 -13 10 -14 8 -10 -15 5
-26 3 -28 -28 -28 -19 0 -34 5 -34 10 0 6 4 10 8 10 13 0 32 48 26 65 -4 8 1
17 10 21 9 3 16 15 16 25 0 15 7 19 31 19 16 0 28 -4 25 -9z m354 5 c0 -22
-14 -32 -40 -28 -23 3 -30 0 -30 -12 0 -19 11 -21 28 -4 9 9 12 6 12 -16 0
-23 -3 -26 -20 -21 -16 5 -20 2 -20 -19 0 -29 10 -32 39 -14 15 9 23 9 35 -1
26 -22 8 -31 -59 -31 l-64 0 6 35 c4 24 2 35 -7 35 -10 0 -10 3 0 15 7 8 10
26 8 40 -5 24 -4 25 53 25 33 0 59 -2 59 -4z m-1136 -279 c-2 -7 3 -21 11 -32
15 -19 16 -19 12 13 -3 27 0 32 17 32 20 0 21 -5 18 -75 -3 -62 -6 -75 -20
-75 -10 0 -25 17 -36 43 -19 41 -20 41 -23 14 -3 -16 1 -35 8 -43 10 -12 5
-14 -26 -14 -32 0 -36 2 -25 15 7 9 11 37 8 75 l-3 60 32 0 c22 0 31 -4 27
-13z m126 -53 c0 -57 2 -65 18 -62 14 3 17 14 17 66 l0 62 58 0 c32 0 56 -4
53 -9 -3 -5 -1 -24 6 -42 l11 -33 12 34 c7 19 10 38 8 43 -2 4 8 7 24 7 28 0
28 0 28 -65 0 -38 4 -64 10 -62 6 1 10 27 10 57 0 62 6 70 53 70 53 0 75 -17
68 -51 -3 -15 -1 -31 4 -34 15 -9 12 -32 -6 -49 -12 -12 -37 -16 -104 -16
l-89 0 4 33 5 32 -11 -31 c-10 -29 -15 -31 -62 -33 -41 -1 -49 1 -39 11 14 14
17 128 3 128 -4 0 -11 -27 -14 -59 -3 -33 -8 -64 -12 -70 -3 -6 -24 -11 -46
-11 -24 0 -38 4 -34 10 3 6 2 10 -4 10 -5 0 -11 29 -13 65 -3 62 -2 65 20 65
21 0 22 -4 22 -66z m525 57 c8 -13 -16 -26 -42 -22 -16 2 -23 -3 -23 -15 0
-14 3 -15 12 -6 19 19 28 14 28 -14 0 -21 -4 -24 -20 -19 -16 5 -20 2 -20 -19
0 -28 12 -33 31 -13 11 11 16 10 31 -5 10 -10 18 -20 18 -23 0 -3 -30 -5 -67
-3 -67 3 -68 3 -65 30 2 14 -2 29 -8 33 -8 5 -8 11 1 21 6 8 9 25 7 39 -5 24
-4 25 53 25 32 0 60 -4 64 -9z m126 -1 c23 -13 25 -48 4 -56 -21 -8 -19 -18
10 -52 l24 -29 -24 -11 c-27 -13 -30 -10 -40 36 -8 40 -29 43 -23 2 4 -27 2
-30 -23 -30 -26 0 -28 2 -22 30 3 19 1 30 -5 30 -10 0 -8 38 4 78 4 15 68 16
95 2z m119 -53 c0 -36 5 -68 12 -75 9 -9 3 -12 -27 -12 -30 0 -36 3 -27 12 18
18 16 108 -3 108 -8 0 -15 5 -15 11 0 5 4 8 9 4 5 -3 12 -1 16 5 3 5 13 10 21
10 11 0 14 -15 14 -63z"/>
<path d="M1417 2479 c-79 -19 -77 -14 -77 -164 0 -83 4 -135 10 -135 6 0 10
47 10 120 0 135 0 135 85 146 56 8 126 -16 149 -51 26 -39 18 -41 -18 -6 -28
27 -45 35 -85 39 -29 2 -64 -1 -81 -8 l-30 -12 0 -114 0 -114 63 0 c147 1 230
98 179 213 -32 72 -117 108 -205 86z"/>
<path d="M1363 2123 c-23 -4 -23 -6 -23 -169 0 -103 4 -164 10 -164 6 0 10 57
10 150 l0 150 78 0 c99 0 142 -13 181 -52 37 -38 34 -49 -4 -14 -35 33 -83 46
-167 46 l-68 0 0 -141 0 -142 85 5 c130 9 184 51 193 150 8 99 -40 161 -133
172 -74 9 -140 13 -162 9z"/>
<path d="M2004 1949 c-3 -6 -2 -15 3 -20 5 -5 9 -1 9 11 0 23 -2 24 -12 9z"/>
<path d="M980 1280 c0 -22 8 -25 30 -10 13 9 13 11 0 20 -22 15 -30 12 -30
-10z"/>
<path d="M978 1243 c7 -3 16 -2 19 1 4 3 -2 6 -13 5 -11 0 -14 -3 -6 -6z"/>
<path d="M980 1210 c0 -22 1 -23 24 -14 23 9 20 34 -4 34 -13 0 -20 -7 -20
-20z"/>
<path d="M1130 1280 c0 -13 5 -20 13 -17 6 2 12 10 12 17 0 7 -6 15 -12 18 -8
2 -13 -5 -13 -18z"/>
<path d="M1290 1255 c0 -8 4 -15 10 -15 5 0 7 7 4 15 -4 8 -8 15 -10 15 -2 0
-4 -7 -4 -15z"/>
<path d="M1578 1303 c7 -3 16 -2 19 1 4 3 -2 6 -13 5 -11 0 -14 -3 -6 -6z"/>
<path d="M1580 1240 c0 -27 4 -50 8 -50 18 0 32 26 32 62 0 31 -4 38 -20 38
-17 0 -20 -7 -20 -50z"/>
<path d="M2063 1240 c0 -25 2 -35 4 -22 2 12 2 32 0 45 -2 12 -4 2 -4 -23z"/>
<path d="M1935 1261 c-3 -5 -1 -12 5 -16 5 -3 10 1 10 9 0 18 -6 21 -15 7z"/>
<path d="M2268 1303 c7 -3 16 -2 19 1 4 3 -2 6 -13 5 -11 0 -14 -3 -6 -6z"/>
<path d="M1620 1010 c0 -22 7 -25 29 -11 16 10 6 31 -15 31 -8 0 -14 -9 -14
-20z"/>
<path d="M1618 973 c7 -3 16 -2 19 1 4 3 -2 6 -13 5 -11 0 -14 -3 -6 -6z"/>
<path d="M1441 948 c-1 -15 4 -30 9 -33 12 -7 12 12 0 40 -8 18 -9 17 -9 -7z"/>
<path d="M1620 940 c0 -23 22 -27 39 -7 13 16 5 27 -21 27 -11 0 -18 -7 -18
-20z"/>
<path d="M1778 1033 c7 -3 16 -2 19 1 4 3 -2 6 -13 5 -11 0 -14 -3 -6 -6z"/>
<path d="M1920 1010 c0 -13 5 -20 13 -17 6 2 12 10 12 17 0 7 -6 15 -12 18 -8
2 -13 -5 -13 -18z"/>
</g>
</svg>
